<svg width="150px" height="150px" xmlns="http://www.w3.org/2000/svg" xml:space="preserve" version="1.0" viewBox="0 0 280 300"><path fill="#F7DF1E" d="M32.86 42.86h214.29v214.29H32.86z"/><path d="m89.2 221.93 16.4-9.92c3.16 5.61 6.04 10.36 12.94 10.36 6.62 0 10.79-2.59 10.79-12.66v-68.47h20.14v68.75c0 20.86-12.23 30.35-30.06 30.35-16.11 0-25.46-8.34-30.21-18.41M160.41 219.77l16.4-9.49c4.32 7.05 9.93 12.23 19.85 12.23 8.34 0 13.66-4.17 13.66-9.93 0-6.9-5.47-9.35-14.67-13.38l-5.03-2.16c-14.53-6.18-24.17-13.95-24.17-30.35 0-15.1 11.51-26.61 29.49-26.61 12.8 0 22.01 4.46 28.62 16.11l-15.68 10.07c-3.45-6.18-7.19-8.63-12.94-8.63-5.9 0-9.64 3.74-9.64 8.63 0 6.04 3.74 8.49 12.37 12.23l5.03 2.16c17.12 7.34 26.76 14.82 26.76 31.64 0 18.13-14.24 28.05-33.37 28.05-18.7 0-30.78-8.92-36.68-20.57"/></svg>